<?xml version="1.0" encoding="UTF-8"?>
<svg width="133px" height="132px" viewBox="0 0 133 132" version="1.1" xmlns="http://www.w3.org/2000/svg" xmlns:xlink="http://www.w3.org/1999/xlink">
    <title>我的预约1查看详情头像</title>
    <defs>
        <circle id="path-1" cx="66.7140991" cy="65.7140991" r="65.7140991"></circle>
        <linearGradient x1="0%" y1="21.5335804%" x2="81.9368661%" y2="67.6935879%" id="linearGradient-3">
            <stop stop-color="#848EA1" offset="0%"></stop>
            <stop stop-color="#6E798E" offset="100%"></stop>
        </linearGradient>
    </defs>
    <g id="页面-1" stroke="none" stroke-width="1" fill="none" fill-rule="evenodd">
        <g id="我的预约1查看详情" transform="translate(-121.000000, -104.000000)">
            <g id="我的预约1查看详情头像" transform="translate(120.501625, 104.000000)">
                <mask id="mask-2" fill="white">
                    <use xlink:href="#path-1"></use>
                </mask>
                <circle stroke="#E0E8F7" cx="66.7140991" cy="65.7140991" r="65.2140991"></circle>
                <g id="编组-4" mask="url(#mask-2)">
                    <g transform="translate(16.214099, 24.428198)">
                        <path d="M19.0371011,34.5761689 C19.0371011,31.2837802 20.6733477,29.9970674 23.9458411,30.7160306 C24.7818624,40.2541055 25.2069373,45.7715217 25.2210658,47.2682794 C21.2779125,47.2682794 19.0371011,39.5147519 19.0371011,34.5761689 Z M78.7241682,34.5761689 C78.7241682,39.5147519 76.4833568,47.2682794 72.5402035,47.2682794 C72.554332,45.7715217 72.9794069,40.2541055 73.8154282,30.7160306 C77.0879215,29.9970674 78.7241682,31.2837802 78.7241682,34.5761689 Z" id="路径-3" fill="#F7C8B6"></path>
                        <path d="M74.7071522,12.5374191 C75.5647412,14.3139401 75.6066872,17.5476288 75.3920855,20.8677701 L75.3442079,21.5554799 C75.0761185,25.1601756 74.5519073,28.7553787 74.4836114,30.5954122 C74.2691535,30.6245457 74.0463651,30.665294 73.8154282,30.7160306 C73.0587867,39.3484701 72.6387581,44.6875221 72.5553425,46.7331866 L72.5240128,46.7493187 L72.4596774,46.7647662 C72.4596774,52.9455432 68.8821389,57.590299 61.7270617,60.6990334 L61.3258768,60.8701606 L61.3258768,69.8826606 C64.6287815,71.696565 70.9374268,74.1003511 80.2518129,77.0940188 C98.0181104,80.4515695 100.688774,96.0892155 100.688774,100.833065 C100.688774,103.918496 99.0959312,105.156445 95.9102462,104.546914 L95.6683333,104.497735 L6.25152954,104.497735 C1.85497487,104.834348 -0.222584161,103.612791 0.0188524391,100.833065 C0.0210319211,91.4206089 4.29203569,85.5137648 8.55681006,82.1400381 C11.1334714,80.1017237 13.7078589,78.9880603 15.3371598,78.5845757 C23.6297204,75.8304892 31.5241922,72.9298508 39.0205752,69.8826606 C38.8412945,66.6074362 38.6746391,63.6032695 38.5206092,60.8701606 C26.3070736,57.818299 25.6772016,46.9316284 25.6447482,46.5330472 L25.643,46.528 L25.6430061,46.5398493 L25.6429869,46.5599433 C25.6429869,46.8261644 25.5006041,46.9760105 25.2158385,47.0094816 C25.1628462,45.2025916 24.7395397,39.7712511 23.9458411,30.7160306 C22.3151895,28.5592263 22.0510387,21.841631 22.0385222,17.4843897 L22.0383927,16.8493714 C22.0420901,15.3104077 22.0733347,14.1520332 22.0733347,13.73923 C22.4617851,12.2553244 24.4913806,10.1498933 28.1621215,7.42293666 C28.1621215,7.42293666 28.1511796,7.41182233 28.1292957,7.38959368 L28.0709389,7.33031729 C27.7183665,6.97218905 26.3433338,5.57548891 23.9458411,3.14021687 C25.4210453,2.32391608 29.5310244,1.84269257 36.2757786,1.69654634 C63.9947471,-4.48861603 72.4596774,7.88170872 74.7071522,12.5374191 Z" id="形状结合" fill="#F3BEAE"></path>
                        <path d="M99.2742366,93.1271966 L99.4612045,93.6917573 L99.6322204,94.2479705 L99.7878808,94.7947238 C99.8125777,94.8849992 99.8366596,94.9748342 99.860139,95.0642054 L99.9938842,95.5946832 C100.015003,95.682107 100.035544,95.7690207 100.05552,95.8554013 L100.168692,96.3671008 C100.186457,96.4512558 100.203681,96.5348313 100.220377,96.617804 L100.314318,97.1082225 L100.396183,97.583063 L100.46657,98.0412135 L100.526073,98.4815614 L100.575291,98.9029945 L100.631135,99.4972454 L100.657247,99.8665248 L100.675159,100.212996 L100.68547,100.535547 L100.688774,100.833065 C100.688774,103.918496 99.0959312,105.156445 95.9102462,104.546914 L95.6683333,104.497735 C74.8126066,108.165912 59.2167071,110 48.8806346,110 C39.3463063,110 25.1366046,108.165912 6.25152954,104.497735 C1.85497487,104.834348 -0.222584161,103.612791 0.0188524391,100.833065 C0.0210319211,91.4206089 4.29203569,85.5137648 8.55681006,82.1400381 C11.1334714,80.1017237 13.7078589,78.9880603 15.3371598,78.5845757 C20.5174753,76.8641135 25.5424395,75.0864604 30.4120523,73.2516165 L31.3894163,73.5074907 C44.7607415,83.5007969 56.9162225,83.60073 67.8558591,73.8072899 L68.6477308,73.0880802 L69.1767839,73.2880148 L70.2757138,73.6958592 L71.4290675,74.1143402 L72.6368358,74.5434621 L73.8990097,74.9832289 L75.2155798,75.4336446 L76.5865369,75.8947134 L78.0118719,76.3664392 L80.2518129,77.0940188 C91.9775692,79.3100023 97.1276673,86.8751952 99.2742366,93.1271966 Z" id="路径" fill="#707C93"></path>
                        <path d="M74.7071522,12.5374191 C75.5647412,14.3139401 75.6066872,17.5476288 75.3920855,20.8677701 L75.3442079,21.5554799 C75.0761185,25.1601756 74.5519073,28.7553787 74.4836114,30.5954122 C74.2691535,30.6245457 74.0463651,30.665294 73.8154282,30.7160306 C73.0587867,39.3484701 72.6387581,44.6875221 72.5553425,46.7331866 L72.5240128,46.7493187 L72.4596774,46.7647662 C72.4596774,52.9455432 68.8821389,57.590299 61.7270617,60.6990334 L61.3258768,60.8701606 C53.8496591,63.3417386 46.2479032,63.3417386 38.5206092,60.8701606 L38.5206092,60.8701606 C26.3070736,57.818299 25.6772016,46.9316284 25.6447482,46.5330472 L25.6423927,46.528 L25.6429869,46.5599433 C25.6429869,46.8261644 25.5006041,46.9760105 25.2158385,47.0094816 C25.1628462,45.2025916 24.7395397,39.7712511 23.9458411,30.7160306 C22.3151895,28.5592263 22.0510387,21.841631 22.0385222,17.4843897 L22.0383927,16.8493714 C22.0420901,15.3104077 22.0733347,14.1520332 22.0733347,13.73923 C22.4617851,12.2553244 24.4913806,10.1498933 28.1621215,7.42293666 L28.1292957,7.38959368 L28.1292957,7.38959368 L28.0709389,7.33031729 C27.7183665,6.97218905 26.3433338,5.57548891 23.9458411,3.14021687 C25.4210453,2.32391608 29.5310244,1.84269257 36.2757786,1.69654634 C63.9947471,-4.48861603 72.4596774,7.88170872 74.7071522,12.5374191 Z" id="形状结合" fill="#FBDEC5"></path>
                        <path d="M23.2366117,30.8136326 C23.3432765,30.8026369 22.9521181,30.6352747 23.1810853,30.5227386 C20.8574068,27.4492925 22.0733347,15.3078821 22.0733347,13.73923 C22.4617851,12.2553244 24.4913806,10.1498933 28.1621215,7.42293666 C32.1035406,11.6167012 34.0742501,14.1697454 34.0742501,15.0820694 C34.0742501,16.4505553 31.8726552,17.956644 29.8385147,20.9995528 C28.482421,23.0281586 26.9432713,28.7368993 25.2210658,38.1257748 L25.2210658,38.1257748 L23.1810853,30.8112168 Z" id="形状结合" fill="#707C93"></path>
                        <path d="M70.4361354,6.76609771 L70.8652359,7.18125536 C71.5602335,7.87334248 72.1552504,8.56446675 72.6633232,9.22835807 L72.9578379,9.62321474 L73.2321118,10.0102745 C73.2761722,10.0740647 73.3194152,10.1374775 73.361854,10.2004866 L73.60694,10.5734867 L73.8333495,10.9355376 L74.0417084,11.2853783 C74.0749654,11.3425975 74.1074964,11.3992554 74.1393143,11.4553257 L74.3217705,11.7844867 L74.6378497,12.3954597 C74.661581,12.4435334 74.6846774,12.490862 74.7071522,12.5374191 C75.5499552,14.2833105 75.9186816,16.9440271 75.8133312,20.5195691 L75.7821162,21.3291928 L75.7352939,22.1689342 C75.6806677,23.0237345 75.6026304,23.9237113 75.5011819,24.8688647 L75.3919297,25.829077 L75.2670699,26.8194069 C75.2449594,26.9869717 75.2221985,27.1557914 75.1987873,27.325866 L75.0505164,28.3613725 L74.886638,29.4269967 C74.8294107,29.7872244 74.769582,30.1524717 74.7071522,30.5227386 C74.1246171,35.4614145 73.5415123,38.3369243 72.9578379,39.1492681 C72.9578379,37.8365862 72.7568491,36.0435215 72.292909,33.4721476 L72.1774348,32.8651988 L72.0451381,32.2311404 L71.8960192,31.5699725 L71.7300779,30.8816949 C71.7010191,30.7647229 71.6712594,30.6466212 71.6407988,30.5273901 L71.449624,29.7984481 L71.2416268,29.0423966 L71.0168073,28.2592355 L70.7751654,27.4489648 L70.5167012,26.6115845 L70.2414146,25.7470946 L69.9493057,24.8554951 L69.6403744,23.936786 L69.3146208,22.9909674 L68.9720448,22.0180391 L68.6126465,21.0180013 L68.0420071,19.467114 C67.9765,19.2914045 67.9102919,19.1145654 67.8433828,18.9365968 L65.8338512,19.0965851 L64.5289398,19.192611 L62.6237371,19.3207002 L60.7811317,19.4296501 L59.5875044,19.4916503 L57.849228,19.5687011 L56.1735488,19.6266124 L55.0912057,19.654587 L54.0366837,19.6740551 C53.8632484,19.676591 53.6909723,19.6787724 53.5198555,19.6805993 L52.507065,19.6873078 L51.5220955,19.68551 L50.5649471,19.6752057 C50.4077407,19.6727794 50.2516936,19.6699987 50.0968057,19.6668636 L49.1813888,19.6437997 L48.293793,19.6122294 L47.4340182,19.5721526 L46.6020644,19.5235695 L45.7979317,19.4664799 C45.666228,19.4562561 45.5356835,19.4456779 45.4062983,19.4347452 L44.6438971,19.3648961 C44.5191486,19.3525457 44.3955594,19.3398408 44.2731294,19.3267816 L43.5524598,19.2441728 C42.4923212,19.1138798 41.5260785,18.9548776 40.6537319,18.7671663 L40.0860781,18.6377722 C39.8092064,18.5709486 39.5427676,18.5009351 39.2867617,18.4277316 L38.7886604,18.2770715 C37.9816758,18.0188827 37.2906122,17.7252505 36.7154695,17.3961749 C33.589464,15.6075886 30.4313053,12.5164314 27.2409935,8.12270329 C27.5351516,7.89324011 27.8424118,7.66044578 28.1621215,7.42293666 L23.9458411,3.14021687 C24.2268324,2.98473101 24.6034164,2.84140214 25.0755931,2.71023027 L25.4476493,2.61413081 L25.8555528,2.52259022 C25.926524,2.50771336 25.9989888,2.49302646 26.0729473,2.4785295 L26.5346217,2.39382723 C26.6145547,2.38009009 26.6959814,2.3665429 26.7789016,2.35318567 L27.294347,2.2753217 L27.8456396,2.20201661 L28.4327794,2.1332704 L29.0557666,2.06908305 L29.714601,2.00945459 L30.4092828,1.954385 L31.518519,1.8803285 L32.7084116,1.81652947 L33.9789606,1.76298791 L34.8708023,1.73299213 L36.2757786,1.69654634 C55.4018668,-2.5712157 65.3611076,1.99528969 70.4361354,6.76609771 Z" id="路径" fill="url(#linearGradient-3)"></path>
                    </g>
                </g>
            </g>
        </g>
    </g>
</svg>