<?xml version="1.0" encoding="UTF-8"?>
<svg width="39px" height="38px" viewBox="0 0 39 38" version="1.1" xmlns="http://www.w3.org/2000/svg" xmlns:xlink="http://www.w3.org/1999/xlink">
    <title>管理icon</title>
    <defs>
        <filter x="-13.7%" y="-115.4%" width="127.5%" height="330.7%" filterUnits="objectBoundingBox" id="filter-1">
            <feGaussianBlur stdDeviation="1" in="SourceGraphic"></feGaussianBlur>
        </filter>
        <linearGradient x1="50%" y1="4.98150945%" x2="50%" y2="93.9709908%" id="linearGradient-2">
            <stop stop-color="#FF3535" offset="0%"></stop>
            <stop stop-color="#FF3535" offset="42.8622159%"></stop>
            <stop stop-color="#FF3535" offset="100%"></stop>
        </linearGradient>
        <filter x="0.0%" y="0.0%" width="100.0%" height="100.0%" filterUnits="objectBoundingBox" id="filter-3">
            <feGaussianBlur stdDeviation="0" in="SourceGraphic"></feGaussianBlur>
        </filter>
    </defs>
    <g id="页面-1" stroke="none" stroke-width="1" fill="none" fill-rule="evenodd">
        <g id="首页/管理" transform="translate(-126.000000, -619.000000)">
            <g id="管理按钮" transform="translate(47.501625, 607.500000)">
                <g id="管理icon" transform="translate(78.000000, 11.000000)">
                    <rect id="矩形" x="1.5" y="1.5" width="36" height="36"></rect>
                    <rect id="矩形" fill="#FF3535" opacity="0.458542597" filter="url(#filter-1)" x="8.34085734" y="29.1585731" width="21.8229605" height="2.60066256"></rect>
                    <path d="M11,7 L27.32592,7 C28.9827742,7 30.32592,8.34314575 30.32592,10 L30.32592,27.4589044 C30.32592,29.1157586 28.9827742,30.4589044 27.32592,30.4589044 L11,30.4589044 C9.34314575,30.4589044 8,29.1157586 8,27.4589044 L8,10 C8,8.34314575 9.34314575,7 11,7 Z" id="矩形" fill="url(#linearGradient-2)" fill-rule="nonzero" filter="url(#filter-3)"></path>
                    <path d="M20.4917434,12.0611835 C20.9854608,12.0611835 21.4052889,12.4215027 21.4801737,12.9095081 L21.5244573,13.1980933 C21.6017783,13.7019739 22.0729352,14.047769 22.5768159,13.9704481 C22.6432661,13.9602512 22.7084034,13.9428253 22.7710686,13.9184803 L23.0452121,13.8119777 C23.505142,13.6332984 24.0266534,13.8167942 24.2733627,14.2441071 L25.6023783,16.5460297 C25.8492133,16.9735605 25.7471274,17.5172461 25.3620205,17.8261195 L25.1337142,18.0092316 C24.7360011,18.3282156 24.6721786,18.9092135 24.9911626,19.3069266 C25.0333078,19.3594737 25.0810777,19.4072499 25.1336192,19.449402 L25.3621807,19.6327683 C25.7472079,19.9416611 25.8492456,20.485288 25.6024356,20.9127755 L24.2736132,23.2143634 C24.0267945,23.6418658 23.5049552,23.8253078 23.0449246,23.6462837 L22.7714846,23.5398727 C22.2964472,23.3550087 21.7614914,23.5902406 21.5766274,24.065278 C21.552173,24.1281174 21.5346786,24.1934475 21.5244573,24.2600983 L21.4801064,24.5493035 C21.405262,25.037351 20.9854149,25.3977209 20.4916618,25.3977209 L17.8340284,25.3977209 C17.3405193,25.3977209 16.9208029,25.0376977 16.8456816,24.5499395 L16.8009615,24.2595745 C16.7233652,23.7557462 16.2520275,23.4102169 15.7481992,23.4878132 C15.6816755,23.4980587 15.616472,23.51555 15.553752,23.539975 L15.2814418,23.6460204 C14.8213701,23.8251856 14.2993966,23.6417657 14.0525332,23.2141858 L12.7234841,20.9122052 C12.4768178,20.4849668 12.5785787,19.9416779 12.9631473,19.6326731 L13.1923861,19.4484773 C13.5898327,19.1291248 13.6531406,18.5480443 13.3337881,18.1505976 C13.2917518,18.0982819 13.2441362,18.0507059 13.1917853,18.0087134 L12.9641602,17.8261266 C12.5790872,17.5172449 12.4770218,16.9735843 12.7238462,16.5460719 L14.0528546,14.2441618 C14.2995777,13.816825 14.8211304,13.633336 15.281073,13.8120587 L15.5547156,13.9183896 C16.0299576,14.1030573 16.5649202,13.8675003 16.7495879,13.3922582 C16.7739272,13.3296211 16.7913546,13.2645136 16.8015604,13.1980933 L16.8459328,12.9093117 C16.9209032,12.4213957 17.3406909,12.0611835 17.834333,12.0611835 L20.4917434,12.0611835 Z M19.1631244,16.055205 C17.6861785,16.055205 16.4888772,17.2525062 16.4888772,18.7294522 C16.4888772,20.2063982 17.6861785,21.4036994 19.1631244,21.4036994 C20.6400704,21.4036994 21.8373717,20.2063982 21.8373717,18.7294522 C21.8373717,17.2525062 20.6400704,16.055205 19.1631244,16.055205 Z" id="形状结合" fill="#FFFFFF"></path>
                </g>
            </g>
        </g>
    </g>
</svg>