<?xml version="1.0" encoding="UTF-8"?>
<svg width="37px" height="36px" viewBox="0 0 37 36" version="1.1" xmlns="http://www.w3.org/2000/svg" xmlns:xlink="http://www.w3.org/1999/xlink">
    <title>我的预约icon</title>
    <defs>
        <filter x="-12.0%" y="0.0%" width="121.0%" height="111.0%" filterUnits="objectBoundingBox" id="filter-1">
            <feGaussianBlur stdDeviation="0" in="SourceGraphic"></feGaussianBlur>
        </filter>
        <filter x="-13.7%" y="-115.4%" width="127.5%" height="330.7%" filterUnits="objectBoundingBox" id="filter-2">
            <feGaussianBlur stdDeviation="1" in="SourceGraphic"></feGaussianBlur>
        </filter>
        <linearGradient x1="50%" y1="4.04628461%" x2="50%" y2="93.9709908%" id="linearGradient-3">
            <stop stop-color="#1C92F3" offset="0%"></stop>
            <stop stop-color="#2E9EF8" offset="43.9849213%"></stop>
            <stop stop-color="#44ABFE" offset="100%"></stop>
        </linearGradient>
        <filter x="0.0%" y="0.0%" width="100.0%" height="100.0%" filterUnits="objectBoundingBox" id="filter-4">
            <feGaussianBlur stdDeviation="0" in="SourceGraphic"></feGaussianBlur>
        </filter>
    </defs>
    <g id="页面-1" stroke="none" stroke-width="1" fill="none" fill-rule="evenodd">
        <g id="首页/管理" transform="translate(-125.000000, -436.000000)">
            <g id="我的预约按钮" transform="translate(47.501625, 424.000000)">
                <g id="我的预约icon" transform="translate(78.000000, 12.000000)">
                    <g id="编组-15" transform="translate(5.842482, 5.500000)">
                        <g id="编组-14" filter="url(#filter-1)">
                            <rect id="矩形" fill="#44ABFE" opacity="0.458542597" filter="url(#filter-2)" x="0.251479723" y="22.1457349" width="21.8229605" height="2.60066256"></rect>
                            <path d="M17.585804,0.451578782 C18.0986399,0.451578782 18.5213112,0.837618972 18.5790763,1.33495766 L18.585804,1.45157878 L18.585,3.25657878 L19.32592,3.2566537 C20.9827742,3.2566537 22.32592,4.59979945 22.32592,6.2566537 L22.32592,20.4963486 C22.32592,22.1532029 20.9827742,23.4963486 19.32592,23.4963486 L3,23.4963486 C1.34314575,23.4963486 6.46995335e-16,22.1532029 0,20.4963486 L0,6.2566537 C2.41183085e-16,4.59979945 1.34314575,3.2566537 3,3.2566537 L3.79,3.25657878 L3.79005287,1.45157878 C3.79005287,0.899294032 4.23776812,0.451578782 4.79005287,0.451578782 C5.30288871,0.451578782 5.72556003,0.837618972 5.78332514,1.33495766 L5.79005287,1.45157878 L5.79,3.25657878 L16.585,3.25657878 L16.585804,1.45157878 C16.585804,0.899294032 17.0335193,0.451578782 17.585804,0.451578782 Z" id="形状结合" fill="url(#linearGradient-3)" fill-rule="nonzero" filter="url(#filter-4)"></path>
                        </g>
                        <path d="M14.5656487,4.85061703 C15.0784846,4.85061703 15.5011559,5.23665722 15.558921,5.73399591 L15.5656487,5.85061703 L15.5656487,16.1805203 C15.5656487,16.6933561 15.1796085,17.1160275 14.6822698,17.1737926 L14.5656487,17.1805203 L8.43435129,17.1805203 C7.88206654,17.1805203 7.43435129,16.7328051 7.43435129,16.1805203 C7.43435129,15.6676845 7.82039148,15.2450131 8.31773016,15.187248 L8.43435129,15.1805203 L13.565,15.18 L13.5656487,5.85061703 C13.5656487,5.33778119 13.9516889,4.91510987 14.4490276,4.85734476 L14.5656487,4.85061703 Z" id="路径" fill="#FFFFFF" fill-rule="nonzero" transform="translate(11.500000, 11.015569) rotate(-315.000000) translate(-11.500000, -11.015569) "></path>
                    </g>
                    <rect id="矩形" x="0" y="1.13686838e-13" width="36" height="36"></rect>
                </g>
            </g>
        </g>
    </g>
</svg>