<?xml version="1.0" encoding="UTF-8"?>
<svg width="719px" height="719px" viewBox="0 0 719 719" version="1.1" xmlns="http://www.w3.org/2000/svg" xmlns:xlink="http://www.w3.org/1999/xlink">
    <title>机器人红色logo背景</title>
    <defs>
        <linearGradient x1="58.4830527%" y1="9.98566229%" x2="4.13533148%" y2="107.523365%" id="linearGradient-1">
            <stop stop-color="#FD6475" stop-opacity="0.730960446" offset="0%"></stop>
            <stop stop-color="#F66D80" stop-opacity="0.0963996941" offset="100%"></stop>
        </linearGradient>
        <filter x="-0.0%" y="-0.0%" width="100.0%" height="100.0%" filterUnits="objectBoundingBox" id="filter-2">
            <feGaussianBlur stdDeviation="0" in="SourceGraphic"></feGaussianBlur>
        </filter>
        <linearGradient x1="58.4830527%" y1="9.98565864%" x2="4.13533148%" y2="107.523371%" id="linearGradient-3">
            <stop stop-color="#FD6475" stop-opacity="0.730960446" offset="0%"></stop>
            <stop stop-color="#F66D80" stop-opacity="0.0963996941" offset="100%"></stop>
        </linearGradient>
        <filter x="0.0%" y="0.0%" width="100.0%" height="100.0%" filterUnits="objectBoundingBox" id="filter-4">
            <feGaussianBlur stdDeviation="0" in="SourceGraphic"></feGaussianBlur>
        </filter>
    </defs>
    <g id="页面-1" stroke="none" stroke-width="1" fill="none" fill-rule="evenodd" opacity="0.875348772">
        <g id="机器人首页红色2" transform="translate(-482.000000, 1.000000)">
            <g id="机器人红色logo背景" transform="translate(481.840399, -1.707565)">
                <path d="M359.71144,2 C557.283503,2 717.42288,162.165142 717.42288,359.709098 C717.42288,557.253054 557.283503,717.411169 359.71144,717.411169 C162.167484,717.411169 2,557.253054 2,359.709098 C2,162.165142 162.167484,2 359.71144,2 Z M359.71144,31.6566548 C178.518227,31.6566548 31.6379173,178.529938 31.6379173,359.709098 C31.6379173,540.897627 178.518227,687.775594 359.71144,687.775594 C540.904654,687.775594 687.752172,540.897627 687.752172,359.709098 C687.752172,178.529938 540.904654,31.6566548 359.71144,31.6566548 Z M359.713782,53.8689317 C402.777063,53.8689317 443.732383,62.792629 480.916797,78.8435732 C486.594236,81.8766934 494.054072,87.5447635 494.054072,96.3888267 C494.054072,112.592012 471.585561,109.170091 443.444295,131.58239 C417.436753,152.305979 403.959862,181.473118 403.959862,214.155867 L403.959862,214.155867 L403.959862,662.324554 C389.525021,664.397381 374.743537,665.516942 359.713782,665.516942 C344.730871,665.516942 329.996231,664.397381 315.563732,662.324554 L315.563732,662.324554 L315.563732,214.155867 C315.563732,181.473118 302.105578,152.305979 276.079299,131.58239 C247.966139,109.170091 225.488259,112.592012 225.488259,96.3888267 C225.488259,87.2964927 233.304107,81.5886055 239.082259,78.5953023 C276.079299,62.687231 316.868325,53.8689317 359.713782,53.8689317 Z M225.828812,138.524605 C232.20422,141.457011 244.971431,147.422538 255.056848,155.453865 C275.871782,172.034142 286.6458,193.116084 286.6458,223.173251 L286.6458,223.173251 L286.6458,656.754855 C265.418643,651.54351 245.053407,644.100069 225.828812,634.714962 L225.828812,634.714962 Z M493.700872,138.51992 L493.700872,634.703252 C474.464566,644.06962 454.113383,651.482613 432.8792,656.729091 L432.8792,656.729091 L432.8792,223.175593 C432.8792,193.116084 443.662586,172.034142 464.472835,155.453865 C474.551226,147.417854 487.325464,141.459353 493.700872,138.51992 L493.700872,138.51992 Z M195.952929,101.383521 L195.952929,341.264682 C161.136457,340.386366 148.334113,319.304424 144.457809,311.111486 C141.270105,304.389436 139.204305,297.304348 133.177881,297.304348 C123.080753,297.304348 114.880789,326.518331 114.880789,362.529314 C114.880789,398.577772 123.080753,427.765991 133.177881,427.765991 C138.1351,427.765991 140.412408,422.967191 142.838688,417.529482 L143.124991,416.887055 C143.220768,416.672097 143.316944,416.456408 143.413692,416.240238 L143.705814,415.590536 C143.95096,415.048333 144.200736,414.504694 144.457809,413.963538 C148.29535,405.840936 160.881303,385.090411 194.915026,383.810348 L195.952929,383.777551 L195.952929,618.023433 C110.552444,563.776254 53.8764267,468.372327 53.8764267,359.709332 C53.8764267,251.041653 110.552444,155.616647 195.952929,101.383521 Z M523.55708,101.430599 C604.031965,152.583761 658.956034,240.312371 664.975431,341.206362 C631.721191,339.527021 619.375572,319.150074 615.550796,311.11172 C612.402909,304.38967 610.330081,297.304582 604.291947,297.304582 C594.194819,297.304582 586.008908,326.518565 586.008908,362.529548 C586.008908,398.566295 594.194819,427.766225 604.291947,427.766225 C610.330081,427.766225 612.402909,420.674111 615.550796,413.963772 C619.356834,405.960551 631.63453,385.681976 664.59834,383.878499 C656.971952,481.3961 603.599476,566.072292 525.918468,616.45361 L523.55708,617.969797 L523.55708,101.430599 Z" id="形状结合" fill="url(#linearGradient-1)" filter="url(#filter-2)"></path>
                <path d="M359.71144,1 C557.826537,1 718.42288,161.603606 718.42288,359.709098 C718.42288,557.813255 557.827871,718.411169 359.71144,718.411169 C161.61342,718.411169 1,557.80356 1,359.709098 C1,161.613301 161.614754,1 359.71144,1 Z M359.71144,3 C162.71932,3 3,162.717875 3,359.709098 C3,556.698975 162.717973,716.411169 359.71144,716.411169 C556.723294,716.411169 716.42288,556.708694 716.42288,359.709098 C716.42288,162.708156 556.721948,3 359.71144,3 Z M359.71144,30.6566548 C541.449869,30.6566548 688.752172,177.970583 688.752172,359.709098 C688.752172,541.456418 541.450433,688.775594 359.71144,688.775594 C177.966224,688.775594 30.6379173,541.450194 30.6379173,359.709098 C30.6379173,177.976807 177.966788,30.6566548 359.71144,30.6566548 Z M359.71144,32.6566548 C179.071331,32.6566548 32.6379173,179.081403 32.6379173,359.709098 C32.6379173,540.345615 179.070785,686.775594 359.71144,686.775594 C540.34581,686.775594 686.752172,540.351902 686.752172,359.709098 C686.752172,179.075117 540.345264,32.6566548 359.71144,32.6566548 Z M359.713782,52.8689317 C402.047834,52.8689317 443.190741,61.469638 481.388008,77.9615528 C489.667033,82.3845465 495.054072,88.455839 495.054072,96.3888267 C495.054072,102.867571 491.963611,106.604873 484.489003,110.367341 L483.685953,110.763603 L483.184834,111.003038 L482.312407,111.395631 L473.373317,115.30747 L470.79873,116.446371 L468.462291,117.496282 L467.042818,118.149257 L466.551039,118.38052 L466.109236,118.591999 C458.215506,122.411734 451.142347,126.729891 444.067477,132.364466 C419.088164,152.268732 405.504415,180.267143 404.975913,212.211361 L404.963896,213.180571 L404.959862,214.155867 L404.959862,663.191213 L404.102003,663.3144 C389.338692,665.434395 374.519387,666.516942 359.713782,666.516942 C346.178715,666.516942 332.628929,665.606617 319.077874,663.818231 L317.229996,663.568921 L314.563732,663.193668 L314.563732,214.155867 C314.563732,181.39409 300.952421,152.666059 275.455932,132.364319 C268.670501,126.954855 261.884959,122.758814 254.372988,119.052688 L253.219447,118.49048 L251.98713,117.912533 L249.855642,116.944018 L247.046606,115.694453 L237.027512,111.305078 L236.271608,110.962021 C227.913165,106.990097 224.488259,103.208133 224.488259,96.3888267 C224.488259,88.2651595 230.070603,82.137467 238.687245,77.6766272 C276.578086,61.3842371 317.554649,52.8689317 359.713782,52.8689317 Z M359.713782,54.8689317 C317.827576,54.8689317 277.119698,63.3284021 239.54224,79.4832311 C231.583783,83.6060149 226.488259,89.1993294 226.488259,96.3888267 C226.488259,101.662581 228.823515,104.786857 234.882004,108.026214 L235.597663,108.400625 L236.346842,108.776831 C236.474524,108.839725 236.603624,108.902725 236.734149,108.965849 L237.289136,109.229725 L238.613503,109.819675 L245.657533,112.898125 L249.232999,114.475364 L251.189629,115.35114 L253.219738,116.279499 L254.05507,116.673158 L254.30163,116.791774 C262.317387,120.672302 269.510701,125.066901 276.702207,130.800094 C302.418938,151.277203 316.284822,180.204531 316.559568,213.156107 L316.563732,214.155867 L316.563601,661.454565 L317.505931,661.588049 C330.327731,663.355643 343.149821,664.333382 355.958808,664.493463 L357.880056,664.516942 L359.713782,664.516942 C373.810275,664.516942 387.920524,663.529098 401.98367,661.592662 L402.959601,661.455565 L402.959871,214.15174 L402.963939,213.168182 C403.236174,180.218232 417.114359,151.284225 442.821308,130.800157 C449.732106,125.296252 456.642255,121.026218 464.279574,117.259914 L465.486303,116.672338 L466.638057,116.132149 L468.005351,115.507392 L470.761836,114.274089 L473.510418,113.062371 L481.465069,109.583787 L482.4138,109.155598 C482.680545,109.028847 482.941545,108.902651 483.19688,108.776882 L483.945969,108.400729 C484.068011,108.338208 484.188656,108.275761 484.307915,108.213372 L485.006905,107.839615 C490.808218,104.666451 493.054072,101.561635 493.054072,96.3888267 C493.054072,89.3729906 488.14257,83.8376377 480.520485,79.7616891 C442.646964,63.4132866 401.773623,54.8689317 359.713782,54.8689317 Z M224.828812,635.341501 L224.828812,136.96394 L226.246685,137.616099 C226.831533,137.885103 227.408861,138.152381 227.978942,138.418191 L229.667722,139.211474 L231.314667,139.997497 C231.585763,140.127983 231.855184,140.25823 232.122965,140.388272 L233.710241,141.166313 C234.494311,141.554359 235.264234,141.941136 236.020935,142.327515 L237.51698,143.100003 C244.418813,146.704889 250.222538,150.32582 255.6799,154.671685 C276.880289,171.558998 287.224569,192.696781 287.633219,221.39856 L287.642562,222.27063 L287.6458,223.173251 L287.6458,658.030054 L286.407376,657.726016 C266.433443,652.822342 247.042674,645.905194 228.499985,637.110153 L226.912695,636.351696 L224.828812,635.341501 Z M494.700872,136.957693 L494.700872,635.328583 L494.138646,635.602336 C475.750159,644.555893 456.466871,651.671817 436.508662,656.842131 L434.79631,657.280533 L431.8792,658.00991 L431.8792,223.175593 C431.8792,193.570638 442.216872,171.907405 463.849404,154.671987 C469.549761,150.126804 475.575954,146.407513 482.917216,142.629083 L484.403296,141.872347 L485.926203,141.11246 L487.487695,140.347849 C488.014819,140.092016 488.548667,139.835134 489.089533,139.576941 L490.733473,138.798162 L492.421274,138.009939 L494.700872,136.957693 Z M226.828601,140.088565 L226.828601,634.087565 L227.782633,634.550807 C245.628346,643.140979 264.278029,649.97518 283.488389,654.92903 L285.18487,655.361251 L285.645806,655.475565 L285.645806,223.176845 L285.642594,222.281433 C285.436829,193.740758 275.374422,172.916443 254.433905,156.236132 C247.214057,150.486746 239.32023,146.001535 228.964491,141.091515 L227.164771,140.245321 L226.828601,140.088565 Z M492.700601,634.075565 L492.700601,140.085565 L492.428426,140.212643 C491.843679,140.485711 491.267106,140.756899 490.698378,141.026503 L489.015395,141.830861 L487.377495,142.627491 C478.489391,146.990958 471.556979,151.08429 465.095973,156.235978 C444.153165,172.921868 434.081557,193.755535 433.882219,222.308001 L433.8792,223.175593 L433.878601,655.447565 L434.308476,655.340943 C453.588913,650.463076 472.245403,643.760918 490.07631,635.333068 L491.695022,634.562149 L492.700601,634.075565 Z M196.952929,99.5638742 L196.952929,342.290228 L195.92771,342.264364 C180.058214,341.864024 167.54647,337.336441 157.979617,329.713138 C151.395799,324.466853 146.899818,318.407253 143.828515,312.110796 L143.553212,311.537754 L142.942119,310.219521 L141.544613,307.098204 L141.206922,306.359102 L140.876822,305.657109 L140.553442,304.991597 C140.500057,304.883684 140.446916,304.777264 140.394001,304.672325 L140.079073,304.060354 L139.768693,303.483291 L139.461992,302.940508 C137.529368,299.610107 135.765815,298.304348 133.177881,298.304348 C123.969922,298.304348 115.880789,327.135069 115.880789,362.529314 C115.880789,397.950389 123.966883,426.765991 133.177881,426.765991 C135.893394,426.765991 137.630135,425.43368 139.698225,421.698375 L139.996062,421.148298 C140.046124,421.053855 140.09641,420.958022 140.146936,420.860782 L140.453127,420.260364 C140.504688,420.157444 140.556525,420.05309 140.608656,419.947287 L140.92511,419.294966 L141.414876,418.249765 L141.75268,417.507473 L142.79462,415.178558 L143.111409,414.483412 L143.409086,413.842463 L143.553641,413.536361 C146.585368,407.119359 151.078505,400.917391 157.73463,395.542955 C166.954321,388.098587 178.950405,383.548191 194.109893,382.843366 L194.883443,382.810847 L196.952929,382.745452 L196.952929,619.843332 L195.416748,618.867535 C107.344212,562.923045 52.8764267,465.98723 52.8764267,359.709332 C52.8764267,254.483766 106.266009,158.405755 192.784941,102.229423 L195.416847,100.539355 L196.952929,99.5638742 Z M522.55708,99.6100354 L524.093521,100.586661 C605.89273,152.581618 658.993878,240.311262 665.782145,338.17807 L665.973656,341.146807 L666.040153,342.261405 L664.924995,342.205089 C649.754966,341.439002 637.777356,336.821359 628.594335,329.318044 C622.073077,323.989617 617.669408,317.891744 614.645178,311.535814 L614.338619,310.873319 L613.518231,309.041272 L612.721224,307.240834 L612.387641,306.503005 C612.332687,306.383086 612.278044,306.264684 612.223693,306.147786 L611.900964,305.464356 L611.584425,304.816426 L611.273238,304.203388 C611.221774,304.104088 611.170497,304.006217 611.119391,303.909761 L610.814665,303.347913 L610.5132,302.819428 C608.612482,299.576713 606.857614,298.304582 604.291947,298.304582 C595.086907,298.304582 587.008908,327.126193 587.008908,362.529548 C587.008908,397.952014 595.085034,426.766225 604.291947,426.766225 C606.721697,426.766225 608.423568,425.625029 610.212652,422.74737 L610.51178,422.25158 L610.813362,421.72302 C610.914391,421.541304 611.015969,421.354025 611.118235,421.161079 L611.42724,420.565145 L611.741214,419.934603 L612.060996,419.268843 L612.387424,418.567252 L612.793802,417.66581 L614.165382,414.581153 L614.489764,413.87309 C614.542701,413.758849 614.595259,413.64611 614.647715,413.5343 C617.651648,407.217722 622.0304,401.141368 628.505743,395.82344 C637.467714,388.463349 649.102279,383.860704 663.781713,382.92511 L664.543711,382.879992 L665.684362,382.817586 L665.595296,383.956466 C658.176062,478.825205 607.1763,563.897849 528.84091,615.734478 L526.45876,617.295088 L522.55708,619.800256 L522.55708,99.6100354 Z M194.952601,103.213565 L193.8742,103.906777 C109.636328,158.601981 57.0112237,251.366365 54.9399146,353.448037 L54.8926413,356.544243 L54.8764267,359.709332 C54.8764267,464.239703 107.911506,559.671048 193.874125,615.499706 L194.952601,616.192565 L194.952601,384.809565 L194.188182,384.841816 C179.463377,385.527909 167.877692,389.923592 158.991069,397.099027 C152.787406,402.108126 148.537786,407.866267 145.629785,413.832682 L145.219551,414.692306 L144.775883,415.652441 L144.038391,417.294119 L143.570818,418.341599 L143.224813,419.106843 L142.8983,419.816731 L142.588791,420.475303 L142.293803,421.0866 L142.010851,421.654664 C141.964557,421.745963 141.918662,421.835629 141.873112,421.923746 L141.603554,422.434537 C141.51481,422.599054 141.427036,422.75805 141.339819,422.912197 L141.079422,423.360767 C141.036163,423.433329 140.992939,423.504847 140.949699,423.575406 L140.689651,423.987918 C140.602627,424.122033 140.515124,424.252984 140.426728,424.381443 L140.158447,424.760022 L139.882321,425.127695 C139.835509,425.18829 139.788266,425.248599 139.740541,425.308706 C137.941639,427.57431 135.828286,428.765991 133.177881,428.765991 C122.185315,428.765991 113.880789,399.171986 113.880789,362.529314 C113.880789,325.913347 122.188286,296.304348 133.177881,296.304348 C136.836185,296.304348 139.104363,298.121858 141.512009,302.500342 L141.841332,303.113352 C141.95149,303.323026 142.062081,303.538062 142.173246,303.758528 L142.508613,304.43629 C142.564844,304.551989 142.621254,304.669063 142.677861,304.787521 L143.020023,305.514947 L143.413679,306.378001 L144.470621,308.744864 L144.909745,309.713649 L145.209017,310.359705 L145.361742,310.683811 C148.315838,316.927575 152.706265,322.953779 159.225996,328.148996 C167.989964,335.132524 179.340799,339.43062 193.687863,340.176822 L194.445741,340.212812 L194.952601,340.231565 L194.952601,103.213565 Z M524.556601,103.260565 L524.556601,616.138565 L525.374326,615.614617 C602.960301,565.294933 654.090787,482.381584 663.104556,389.472026 L663.364792,386.653549 L663.505601,384.948565 L663.152344,384.972791 C649.747142,385.952176 639.048836,390.089809 630.69378,396.632229 L630.232018,396.998166 L629.775064,397.369022 C623.550716,402.480818 619.340559,408.323216 616.456129,414.388473 L616.147517,415.054532 L614.547407,418.644982 L614.197164,419.418814 L613.852708,420.158309 L613.513158,420.863901 L613.177632,421.536029 C610.562793,426.671101 608.237042,428.766225 604.291947,428.766225 C593.302929,428.766225 585.008908,399.174601 585.008908,362.529548 C585.008908,325.903585 593.304791,296.304582 604.291947,296.304582 C607.734222,296.304582 609.944938,297.89996 612.188047,301.715503 L612.516685,302.289796 L612.846666,302.896223 L613.17887,303.535217 L613.514177,304.207215 L613.853467,304.912651 C613.910396,305.033034 613.967528,305.154829 614.024881,305.278044 L614.371798,306.034454 L615.864327,309.395142 L616.158635,310.044146 C616.260215,310.266088 616.359102,310.479824 616.453787,310.682062 C619.357497,316.784654 623.59146,322.647532 629.859793,327.769298 C638.254626,334.628595 649.092513,338.99424 662.763453,340.062406 L663.511953,340.117395 L663.904601,340.142565 L663.786945,338.316565 C657.17788,243.033372 606.38013,157.421965 527.862345,105.41636 L525.474551,103.850743 L524.556601,103.260565 Z" id="形状结合" fill="url(#linearGradient-3)" filter="url(#filter-4)"></path>
            </g>
        </g>
    </g>
</svg>